<svg xmlns="http://www.w3.org/2000/svg" xmlns:xlink="http://www.w3.org/1999/xlink" viewBox="0 0 375 375"><defs><symbol overflow="visible" id="c"><path style="stroke:none" d="M56.328-11.89c.133-.083.328-.126.578-.126.246 0 .461.067.64.188.184.125.224.32.11.578-1.48 2.844-3.586 5.93-6.312 9.25-2.719 3.32-5.395 6.336-8.016 9.047-2.617 2.715-4.527 4.578-5.734 5.578-2.844 2.457-6.043 4.61-9.594 6.453a33.38 33.38 0 0 1-5.906 2.422c-2.43.738-5.028.992-7.797.766-3.574-.282-6.48-1.66-8.719-4.125-1.5-1.72-2.46-3.57-2.875-5.547-.875-3.887-.71-7.602.5-11.14a34.927 34.927 0 0 1 3.985-8.517 49.188 49.188 0 0 1 6.03-7.546c3.321-3.395 7.102-6.47 11.345-9.22.113-.081.226-.148.343-.202.215-.114.414-.242.594-.39.184-.153.305-.392.36-.704-2.313-.715-4.06-1.55-5.235-2.5-1.168-.957-1.95-2-2.344-3.125a10.614 10.614 0 0 1-.593-3.547 13.155 13.155 0 0 1 1.093-5.062c1.059-2.653 2.57-5.114 4.532-7.375 2.394-2.903 5.128-5.602 8.203-8.094 1.425-1.227 3.078-2.25 4.953-3.063 1.414-.582 2.976-.773 4.687-.578 1.133.106 2.04.457 2.719 1.047.676.594 1.023 1.32 1.047 2.172a8.5 8.5 0 0 1-.531 3.016 34.51 34.51 0 0 1-1.985 4.109c-.699 1.262-1.41 2.508-2.125 3.734-.336.563-.66 1.121-.968 1.672-.25.45-.543.746-.876.89-.335.138-.824.157-1.468.063-.43-.07-.77-.218-1.016-.437-.242-.227-.324-.484-.25-.766a7.763 7.763 0 0 1 .719-1.765c.558-.996 1.133-1.989 1.719-2.97.3-.526.609-1.062.922-1.593a16.472 16.472 0 0 0 1.703-4.14 4.883 4.883 0 0 0 .14-2.157c-.093-.414-.308-.703-.64-.86-.325-.163-.696-.151-1.11.032-.93.418-1.789.91-2.578 1.469-4.96 3.668-9.023 7.914-12.187 12.734-1.618 2.438-2.524 5.106-2.72 8-.136 1.532.282 3.055 1.25 4.563.84 1.187 2.048 2.058 3.61 2.61 1.426.562 2.805.562 4.14 0a29.12 29.12 0 0 1 4.579-1.517c1.508-.414 3.113-.496 4.813-.25.582.094 1.015.352 1.296.766.227.438.133.8-.28 1.078-.7.418-1.446.77-2.235 1.047-1.7.617-3.528.965-5.485 1.047-1.136.031-2.129.316-2.968.844-5.23 3.043-9.739 6.535-13.516 10.468-3.781 3.938-6.738 8.399-8.86 13.376a21.225 21.225 0 0 0-1.624 6.265c-.22 2.152-.055 4.363.5 6.625.382 1.852 1.304 3.563 2.765 5.125 2.09 2.227 4.703 3.074 7.828 2.547 1.871-.305 3.61-.836 5.203-1.594 2.903-1.336 5.82-3.05 8.75-5.14a79.782 79.782 0 0 0 8.204-6.704c2.539-2.375 4.718-4.66 6.53-6.843 1.09-1.278 2.47-2.883 4.126-4.813 2.394-2.82 4.406-5.21 6.031-7.172Zm0 0"/></symbol><symbol overflow="visible" id="d"><path style="stroke:none" d="M21.547-9.781c-.344 1.062-1.04 2.285-2.078 3.656-1.032 1.375-2.324 2.262-3.875 2.656-1.555.399-2.895.344-4.016-.156-1.125-.496-1.746-1.844-1.86-4.031C8.427-5.164 7.196-3.57 6.032-2.875c-1.156.7-2.363.965-3.61.797C.993-2.305.028-2.86-.468-3.734c-.496-.871-.664-1.883-.5-3.032.168-1.152.52-2.257 1.047-3.312.414-.777.992-1.504 1.734-2.172a9.733 9.733 0 0 1 2.344-1.594c.996-.508 2.004-.746 3.016-.719 1.02.024 2.11.356 3.266 1 .019.032.03.008.03-.078 0-.113.024-.254.079-.421a.745.745 0 0 1 .312-.407c.371-.277.82-.422 1.344-.422.52 0 .922.262 1.203.782.051.668-.02 1.523-.203 2.562-.43 2.293-.433 3.942-.015 4.938.425 1 1.164 1.468 2.218 1.406 1.059-.07 2.438-1.117 4.125-3.14 1.696-2.028 2.367-2.509 2.016-1.438Zm-18.75 5.36c.582.417 1.25.359 2-.173.758-.527 1.488-1.285 2.187-2.265A21.622 21.622 0 0 0 8.75-9.781c.477-.977.742-1.703.797-2.172-1.43-.77-2.652-.899-3.672-.39-1.012.5-1.82 1.32-2.422 2.452-.605 1.137-.965 2.243-1.078 3.313-.117 1.074.023 1.793.422 2.156Zm0 0"/></symbol><symbol overflow="visible" id="e"><path style="stroke:none" d="M13.984-9.156c.696-.676.993-.84.891-.5-.094.336-.48.945-1.156 1.828-.668.875-1.504 1.832-2.5 2.86-1 1.03-2.067 1.929-3.188 2.687-1.117.75-2.176 1.16-3.172 1.219-1.23 0-2.222-.364-2.968-1.094C1.148-2.883.617-3.848.297-5.046c-.309-1.208-.442-2.509-.39-3.907.062-1.559.116-3.125.171-4.688.02-.777.047-1.546.078-2.296.059-1.258.102-2.516.125-3.766.028-.395-.035-.723-.187-.985-.153-.269-.426-.421-.813-.453a39.36 39.36 0 0 0-1.687-.03h-1.5c-.582-.06-.973-.22-1.172-.47-.195-.246-.04-.5.469-.75.355-.144.785-.222 1.28-.234.5-.008.997-.004 1.485.016.305.03.57.047.797.047.75 0 1.207-.114 1.375-.344.164-.239.266-.707.297-1.407.05-.738.094-1.484.125-2.234.02-.394.05-.789.094-1.187 0-.582.148-1.11.453-1.578.332-.434.75-.606 1.25-.516.445.117.695.398.75.844.039.742.062 1.488.062 2.234.02.418.02.836 0 1.25 0 .45.008.914.032 1.39-.024.657.054 1.075.234 1.25.176.169.613.25 1.313.25h3.39c.496 0 2.004-.03 4.516-.093 2.52-.07 3.879.133 4.078.61.195.468-1.395.745-4.766.827-2.054.118-3.636.172-4.75.172a57.182 57.182 0 0 0-2.015-.047c-1 0-1.621.18-1.86.532-.23.343-.336 1.043-.312 2.093-.024.907-.07 2.004-.14 3.282a135.232 135.232 0 0 0-.235 8.03c.058 1.888.394 3.114 1 3.673.613.554 1.406.656 2.375.312.976-.351 2.035-.976 3.172-1.875a54.354 54.354 0 0 0 3.39-2.89c.239-.309.531-.61.875-.891.114-.102.223-.195.328-.281Zm0 0"/></symbol><symbol overflow="visible" id="g"><path style="stroke:none" d="M44.125-41.281c.695 3.511 1.14 7.726 1.328 12.64.05 3.68-.242 7.559-.875 11.641-.625 4.086-1.758 8.164-3.39 12.234a49.497 49.497 0 0 1-3.641 6.875 31.698 31.698 0 0 1-4.906 5.985 20.72 20.72 0 0 1-4.86 3.562 16.484 16.484 0 0 1-6.343 1.86c-2.262.195-4.497-.121-6.704-.954-2.199-.824-4.207-2.246-6.015-4.265A27.533 27.533 0 0 1 4.64 1.984 48.505 48.505 0 0 1 .42-14.64a49.78 49.78 0 0 1 .22-10.296A43.292 43.292 0 0 1 3.187-34.97a31.315 31.315 0 0 1 1.766-3.968c.414-.758.45-1.532.11-2.313a27.808 27.808 0 0 1-2.094-8.719c-.188-2.933.254-5.695 1.328-8.281 1.07-2.582 2.57-4.781 4.5-6.594 1.926-1.808 4.094-3.035 6.5-3.672 5.832-1.507 11.207-.492 16.125 3.047a24.72 24.72 0 0 1 7.25 8.375 48.116 48.116 0 0 1 3.297 7.703 70.679 70.679 0 0 1 2.156 8.11ZM38.797-7.406a54.223 54.223 0 0 0 2.469-9.75c.507-3.301.789-6.598.843-9.89 0-6.84-.933-13.462-2.797-19.86a65.075 65.075 0 0 0-2.093-5.828 33.69 33.69 0 0 0-2.907-5.485 23.605 23.605 0 0 0-3.609-4.375 19.371 19.371 0 0 0-4.687-3.25c-2.075-1.027-4.145-1.539-6.203-1.531-2.063.012-4.075.691-6.032 2.031-2.48 1.711-4.351 3.762-5.61 6.156-1.26 2.399-1.835 5.114-1.718 8.141.277 7.68 3.32 14.074 9.125 19.188a36.31 36.31 0 0 0 5.922 4.265 28.238 28.238 0 0 0 6.703 2.797c.102.043.211.074.328.094a2.9 2.9 0 0 1 .657.172c.207.086.394.207.562.36.082.093.145.206.188.327.039.125.062.246.062.36a1.707 1.707 0 0 1-.156.297.502.502 0 0 1-.235.234c-.468.262-.941.277-1.406.047a14.15 14.15 0 0 0-2.36-.844 1.868 1.868 0 0 1-.359-.078c-7.187-1.926-12.976-5.86-17.359-11.797a4.323 4.323 0 0 1-.172-.266c-.086-.195-.2-.359-.344-.484-.136-.121-.316-.152-.53-.094a.493.493 0 0 0-.345.235 1.573 1.573 0 0 0-.171.437.718.718 0 0 1-.11.281c-.086.211-.152.418-.203.625-.031.094-.082.2-.14.313-1.75 5.023-2.66 10.055-2.72 15.094-.054 5.043.676 10.105 2.188 15.187A36.96 36.96 0 0 0 7.516.953c.77 1.684 1.695 3.3 2.78 4.844a15.877 15.877 0 0 0 4.782 4.453c2.746 1.676 5.625 1.95 8.625.828a18.508 18.508 0 0 0 4.781-2.812 26.424 26.424 0 0 0 3.782-3.813A39.362 39.362 0 0 0 36-1.219a45.91 45.91 0 0 0 2.797-6.187Zm0 0"/></symbol><symbol overflow="visible" id="h"><path style="stroke:none" d="M19.688-9.578c.277.023.23.41-.141 1.156-.375.742-.992 1.598-1.844 2.563a14.48 14.48 0 0 1-2.875 2.484c-1.062.7-2.121 1.016-3.172.953-.793-.07-1.379-.305-1.75-.703a3.113 3.113 0 0 1-.765-1.297 7.7 7.7 0 0 1-.266-1.25 3.04 3.04 0 0 0-.094-.578c-.043-.121-.12-.129-.234-.016-.813 1.868-2.223 2.797-4.219 2.797-1.125 0-2.039-.492-2.734-1.484C.894-5.941.449-7.18.266-8.672c-.18-1.488-.032-3.004.437-4.547.113-.508.426-.86.938-1.047.351-.132.718-.117 1.093.047.383.156.594.403.625.735 0 .343-.027.683-.078 1.015a5.96 5.96 0 0 0-.14.719c-.055.918-.04 1.926.046 3.016.083 1.086.376 2.02.876 2.796.476.618 1.007.696 1.593.235.582-.465 1.098-1.188 1.547-2.156.34-.778.61-1.551.797-2.313.195-.77.32-1.363.375-1.781.05-.176.078-.29.078-.344.09-.332.18-.656.266-.969.144-.476.285-.937.422-1.375.238-.863.847-1.226 1.828-1.093.59.054.914.347.969.875.05.73.066 1.457.046 2.171a77.768 77.768 0 0 1-.125 2.235 77.831 77.831 0 0 0-.125 3.14c-.03 1.512.266 2.395.891 2.641.633.25 1.406.09 2.313-.484.902-.57 1.78-1.348 2.624-2.328.07-.09.165-.207.282-.344.164-.215.367-.457.61-.719.237-.27.468-.504.687-.703.226-.195.41-.305.547-.328Zm0 0"/></symbol><symbol overflow="visible" id="i"><path style="stroke:none" d="M40.766-75.813c2.933 1.45 5.304 3.317 7.109 5.594 1.8 2.281 3.063 4.914 3.781 7.89.145.65.203 1.31.172 1.985v.453c0 .532-.277.91-.828 1.125-.281.137-.543.172-.781.11a.696.696 0 0 1-.485-.485 30.662 30.662 0 0 1-.375-1.515c-.023-.114-.047-.239-.078-.375-.949-3.82-2.933-7.102-5.953-9.844-3.992-3.652-8.77-5.09-14.328-4.313-4.813.7-9.21 2.348-13.188 4.938-5.398 3.418-9.867 7.68-13.406 12.781A26.767 26.767 0 0 0-.28-52.766c-2.465 5.418-2.606 10.868-.422 16.344a28.7 28.7 0 0 0 2.578 5.063 53.152 53.152 0 0 0 3.328 4.609 103.35 103.35 0 0 0 8.625 9.453 374.287 374.287 0 0 0 4.953 4.75c2.34 2.262 4.672 4.535 6.985 6.813a75.13 75.13 0 0 1 7.922 9.062 31.597 31.597 0 0 1 2.078 3.203 15.82 15.82 0 0 1 1.484 3.5c1.04 3.309-.008 5.88-3.14 7.703a12.55 12.55 0 0 1-5.36 1.797c-8.555.676-15.355-2.183-20.406-8.578-1.281-1.68-2.098-3.46-2.438-5.344-.336-1.886-.32-3.82.047-5.796.777-4.497 2.707-8.524 5.781-12.079.309-.351.61-.703.891-1.046.102-.165.223-.317.36-.454a4.683 4.683 0 0 0-1.126-1.39 4.377 4.377 0 0 0-.375-.36A115.344 115.344 0 0 1 2.406-25.53a41.799 41.799 0 0 1-5-7.719c-3.488-6.977-3.402-13.938.25-20.875 2.024-3.652 4.473-6.93 7.36-9.828 2.882-2.902 6.156-5.492 9.812-7.766 3.582-2.226 7.469-3.847 11.656-4.86a30.145 30.145 0 0 1 5.25-.78 21.59 21.59 0 0 1 5.344.328c1.29.261 2.52.668 3.688 1.219ZM13.875-12.172a5.73 5.73 0 0 0-.625.75c-1.344 1.793-2.383 3.695-3.11 5.703A27.959 27.959 0 0 0 8.688.547c-.492 4.394.942 8.14 4.297 11.234 3.215 3.02 7.094 4.895 11.625 5.625a14.33 14.33 0 0 0 6.188-.172c3.152-.812 4.371-2.71 3.656-5.687a15.85 15.85 0 0 0-1.719-4.031 38.931 38.931 0 0 0-4.078-5.657 101.211 101.211 0 0 0-5.922-6.468 314.39 314.39 0 0 0-6.343-6.157c-.48-.433-.957-.879-1.422-1.328a1.092 1.092 0 0 0-.422-.25.563.563 0 0 0-.203-.125.665.665 0 0 0-.172.094 1.024 1.024 0 0 0-.297.203Zm0 0"/></symbol><symbol overflow="visible" id="j"><path style="stroke:none" d="M9.344-22.11c.164.024.273.145.328.36.058.21.058.43 0 .656-.055.23-.164.344-.328.344l-6.14-.063v.172c-.032.899-.09 1.977-.173 3.235a144.866 144.866 0 0 0-.219 8.078c0 .93.063 2.21.188 3.844.133 1.625.398 3.082.797 4.359.02.094.098.258.234.484.164.274.32.582.469.922.152.352.227.64.219.86-.012.226-.184.3-.516.218C3.117.992 2.29.121 1.72-1.25 1.145-2.633.739-4.25.5-6.094a45.711 45.711 0 0 1-.39-5.422c-.012-1.757.007-3.18.062-4.265.039-.746.07-1.5.094-2.25.027-.957.054-1.899.078-2.828l-4.64-.063c-.395 0-.618-.078-.673-.234-.058-.153-.02-.313.125-.469a.874.874 0 0 1 .547-.281l4.672-.063.313-4.5c.05-.726.109-1.46.171-2.203 0-.394.008-.789.032-1.187 0-.582.14-1.13.421-1.641.333-.434.739-.602 1.22-.5.413.148.648.445.702.89.051.72.079 1.45.079 2.188V-26.266l-.11 4.25Zm0 0"/></symbol><symbol overflow="visible" id="k"><path style="stroke:none" d="M28.14-11c.227-.309.47-.535.72-.672.257-.144.413-.144.468 0 .05.137-.09.473-.422 1-.75 1.125-1.855 2.192-3.312 3.188-1.45 1-3.055 1.863-4.813 2.578-1.761.71-3.48 1.18-5.156 1.406-1.668.23-3.086.121-4.25-.328-1.156-.457-1.879-1.336-2.156-2.64-.98 1.585-2.145 2.823-3.485 3.718-1.336.898-2.605 1.273-3.812 1.125C.547-1.809-.363-2.32-.812-3.156c-.458-.84-.606-1.805-.454-2.89a9.51 9.51 0 0 1 .985-3.11c.37-.746.91-1.446 1.61-2.094a8.924 8.924 0 0 1 2.187-1.516c.957-.476 1.914-.691 2.875-.64.957.043 1.984.355 3.078.937 0 0 .008-.023.031-.078 0-.113.02-.242.063-.39a.914.914 0 0 1 .28-.407c.184-.144.43-.258.735-.344.3-.082.586-.097.86-.046.445.093.722.324.828.687.113.356.132.754.062 1.188-.074.43-.148.793-.219 1.093a.487.487 0 0 0-.03.172c-.462 1.844-.298 3.145.483 3.89.79.743 1.93 1.087 3.422 1.032 1.489-.058 3.07-.379 4.75-.953a25.341 25.341 0 0 0 4.563-2.047c1.371-.789 2.32-1.566 2.844-2.328ZM2.47-4.094c.59.399 1.222.356 1.89-.125.676-.476 1.332-1.164 1.97-2.062a16.95 16.95 0 0 0 1.593-2.672c.414-.883.648-1.555.703-2.016-1.336-.715-2.48-.847-3.438-.39-.949.46-1.69 1.199-2.218 2.218-.531 1.012-.84 2.02-.922 3.016-.086 1 .055 1.68.422 2.031Zm0 0"/></symbol><symbol overflow="visible" id="l"><path style="stroke:none" d="M10.89-12.594c.583-.058.989.051 1.22.328.183.305.269 1.368.25 3.188a127.889 127.889 0 0 1-.266 6.328 224.315 224.315 0 0 1-.531 6.688c-.188 2.05-.34 3.484-.454 4.296-.812 4.653-2.273 8.547-4.375 11.672-2.093 3.133-4.488 5.551-7.171 7.25-2.684 1.707-5.336 2.742-7.954 3.11-2.62.363-4.847.105-6.671-.766-1.833-.867-2.922-2.316-3.266-4.344-.352-2.023.383-4.57 2.203-7.64 1.813-3.075 5.05-6.618 9.703-10.625 1.856-1.532 4.426-3.395 7.703-5.579C4.56-.87 7.161-2.352 9.078-3.125c.04-.363.07-.754.094-1.172-.781.899-1.59 1.418-2.422 1.563-.824.136-1.586.148-2.281.03h-.11c-1.261-.163-2.246-.741-2.953-1.733C.696-5.434.242-6.57.046-7.845c-.194-1.27-.144-2.406.157-3.406.309-1.008.883-1.613 1.719-1.813.34-.05.723-.082 1.14-.093.415-.008.766.039 1.047.14.278.106.387.332.329.672a14.112 14.112 0 0 0-.485 3.328c-.031 1.211.07 2.274.313 3.188.246.906.691 1.398 1.328 1.469.644.062 1.515-.536 2.61-1.797A5.429 5.429 0 0 0 9.25-8.188c0-.789-.012-1.535-.031-2.234a34.549 34.549 0 0 1-.047-1.625c.144-.215.375-.363.687-.437.32-.07.61-.11.86-.11h.172ZM9 .234V.141a5.51 5.51 0 0 0 .063-.657C9.07-.786 9.05-.992 9-1.14c-.043-.152-.152-.175-.328-.062-.2.148-.426.3-.672.453C6.383.34 4.27 1.867 1.656 3.828a93.257 93.257 0 0 0-7.86 6.625 97.895 97.895 0 0 0-2.234 2.235 55.932 55.932 0 0 0-3.03 3.39 31.717 31.717 0 0 0-2.798 3.938c-.8 1.351-1.296 2.629-1.484 3.828-.195 1.207.07 2.242.797 3.11.98 1.026 2.398 1.476 4.25 1.343 1.855-.137 3.887-.836 6.094-2.094 2.21-1.262 4.332-3.074 6.359-5.437 2.04-2.356 3.734-5.254 5.078-8.688C8.168 8.648 8.895 4.7 9 .234Zm0 0"/></symbol><symbol overflow="visible" id="n"><path style="stroke:none" d="M28.063-11.547c.558-.246.89-.289.984-.125.09.336-.211.93-.906 1.781-.7.856-1.645 1.727-2.828 2.61-2.887 2.011-5.317 3.215-7.282 3.61-1.968.398-3.582.273-4.828-.376-1.242-.644-2.164-1.523-2.765-2.64-.731-1.247-1.184-2.493-1.36-3.735-.242-1.34-.57-2.101-.984-2.281-.418-.176-.867.02-1.344.578-.48.555-.945 1.29-1.39 2.203-.45.906-.82 1.793-1.11 2.656-.293.856-.457 1.508-.484 1.954-.086.25-.168.492-.25.718-.106.356-.23.707-.375 1.047-.368.961-1.008 1.309-1.922 1.047-.512-.082-.805-.39-.875-.922A9.58 9.58 0 0 1 .28-4.547c0-.308-.011-.633-.031-.969-.055-2.289-.113-4.597-.172-6.921 0-.278.129-.473.39-.579.27-.101.579-.148.923-.14.351.011.66.066.921.156.27.094.422.23.454.406.058.387.093.723.093 1 0 .399.024.68.079.844.05.168.164.164.343-.016.184-.183.504-.57.953-1.156a10.459 10.459 0 0 1 2.641-2.86 4.492 4.492 0 0 1 1.656-.765 4.421 4.421 0 0 1 1.86-.062c.632.156 1.132.52 1.5 1.078.363.562.632 1.207.812 1.922.184.71.328 1.37.422 1.984.02.168.047.309.078.422.133.812.317 1.555.547 2.219.238.668.625 1.195 1.156 1.578.528.375 1.313.515 2.344.422 2.238-.164 4.016-.63 5.328-1.391 1.309-.77 2.422-1.586 3.328-2.453.133-.113.254-.227.36-.344.195-.133.367-.273.515-.422.32-.351.75-.672 1.282-.953Zm0 0"/></symbol><symbol overflow="visible" id="o"><path style="stroke:none" d="M16.953-9.125c.246-.133.5-.238.75-.313.258-.07.422-.066.485.016.07.086-.036.3-.313.64-.898 1-1.957 1.919-3.172 2.75A25.95 25.95 0 0 1 11-3.921c-1 .45-2.059.809-3.172 1.078a9.06 9.06 0 0 1-3.312.172c-1.094-.152-2.086-.64-2.97-1.453-1.073-1.07-1.655-2.43-1.75-4.078-.089-1.645.29-3.024 1.157-4.14 1.145-1.278 2.586-2.102 4.328-2.47 1.746-.37 3.32-.097 4.719.829.664.48.934 1.035.813 1.656-.126.625-.465 1.215-1.016 1.765a5.624 5.624 0 0 1-1.813 1.235c-1.011.398-1.914.476-2.703.234-.793-.238-1.414-.55-1.86-.937-.312.117-.507.558-.577 1.328-.211 1.46.242 2.648 1.36 3.562.925.7 2.093.891 3.5.579 1.413-.32 2.862-.883 4.343-1.688A77.78 77.78 0 0 0 16-8.531c.352-.184.672-.383.953-.594Zm-9.265-3.672c-.157-.226-.43-.316-.813-.265-.387.042-.777.16-1.172.343a7.405 7.405 0 0 0-1.047.594c-.304.21-.433.363-.39.453a.69.69 0 0 0 .093.266c.07.125.176.261.313.406.144.137.332.238.562.297.239.055.547.031.922-.063.582-.152.989-.367 1.219-.64.238-.27.375-.535.406-.797.028-.258-.004-.457-.093-.594Zm0 0"/></symbol><symbol overflow="visible" id="p"><path style="stroke:none" d="M13.813-9.703c.3.168.32.586.062 1.25-.367.48-.758.933-1.172 1.36-.418.417-.879.788-1.375 1.109-.031 0-.047.02-.047.046-.336.231-.691.43-1.062.594-3.031 1.086-4.582.438-4.64-1.937-1.231 1.074-2.056 1.73-2.47 1.968a5.717 5.717 0 0 1-3.265.797c-.864-.05-1.446-.312-1.75-.78-.309-.477-.285-1.126.078-1.938a11.14 11.14 0 0 1 2.375-3.438 15.027 15.027 0 0 1 4.031-2.672 4.431 4.431 0 0 1 2.469-.469c.863.055 1.383.543 1.562 1.47.07.28-.004.534-.218.75-.274.25-.598.308-.97.171a.508.508 0 0 1-.109-.015.26.26 0 0 1-.093-.063c-.367-.508-.739-.723-1.11-.64a4.414 4.414 0 0 0-1.203.5C2.957-10.493 1.504-8.899.546-6.86a.695.695 0 0 0-.093.298.303.303 0 0 0 .094.265c.226.074.484.059.765-.047.278-.113.563-.273.844-.484.278-.207.516-.379.703-.516l.032-.062a86.814 86.814 0 0 0 2.734-2.375 2.152 2.152 0 0 1 1.453-.719c.84 0 1.192.379 1.047 1.125a29.82 29.82 0 0 1-.234.844c-.336 1.21-.352 1.918-.047 2.125.3.21.765.21 1.39 0 .633-.207 1.266-.61 1.891-1.203a25.26 25.26 0 0 0 1.594-1.61c.433-.488.8-.648 1.094-.484Zm0 0"/></symbol><symbol overflow="visible" id="q"><path style="stroke:none" d="M15.078-9.5c.207.25-.05.715-.765 1.39-.711.669-1.465 1.231-2.266 1.688-.793.461-1.715.918-2.766 1.375-.699.305-1.445.406-2.234.313-.793-.102-1.188-.582-1.188-1.438 0-.851.196-1.695.594-2.531.395-.863.477-1.305.25-1.328-.219-.028-.68.18-1.375.625A32.71 32.71 0 0 0 .266-5.312a2.193 2.193 0 0 1-1.594.843c-.332 0-.586-.101-.766-.312-.183-.215-.21-.446-.078-.688a368.23 368.23 0 0 1 3.39-6.125c.247-.414.63-.676 1.141-.781.215-.04.414.027.594.203.184.168.281.363.281.578-.023.2-.105.442-.25.719-.062.168-.129.332-.187.484a.67.67 0 0 0-.047.375c.02.106.098.137.234.094.196-.101.391-.21.579-.328.476-.277.94-.547 1.39-.797.395-.226.805-.43 1.234-.61.434-.175.891-.296 1.36-.359.758-.05 1.297.121 1.61.516.32.398.363.945.124 1.64a58.843 58.843 0 0 1-.812 1.876c-.344.586-.403 1.035-.172 1.343.226.305 1.289-.046 3.187-1.046l1.422-.844c1.352-.864 2.078-1.184 2.172-.969Zm0 0"/></symbol><symbol overflow="visible" id="r"><path style="stroke:none" d="M16.906-10.016c.27.063.41.16.422.282.008.125.016.187.016.187a7.96 7.96 0 0 1-1.047 1.469 10.22 10.22 0 0 1-3.14 2.406 4.371 4.371 0 0 1-1.985.531c-1.7.024-2.477-.804-2.328-2.484.058-.352.14-.703.234-1.047.059-.152.11-.316.14-.484.165-.614.212-.953.141-1.016-.074-.07-.273.102-.593.516-.094.074-.18.16-.25.25-.512.605-1.036 1.199-1.563 1.781a14.074 14.074 0 0 1-3.36 2.828c-.75.45-1.542.684-2.374.703-1.371.063-2.14-.566-2.297-1.89a4.563 4.563 0 0 1 .062-1.579c.563-2.152 1.68-3.796 3.36-4.921 1.676-1.133 3.594-1.536 5.75-1.204.601.18 1.047.012 1.328-.5.113-.183.226-.382.344-.593.582-.996 1.156-2 1.718-3 1.051-1.934 2.11-3.88 3.172-5.828.864-1.54 1.727-3.094 2.594-4.657.258-.476.54-.941.844-1.39a.791.791 0 0 1 .515-.375c.207-.051.426-.078.657-.078h.172c.257 0 .46.07.609.203.152.125.183.293.094.5a11.045 11.045 0 0 1-.578 1.531 144.325 144.325 0 0 0-3.313 7.094 430.128 430.128 0 0 0-3.047 7.218c-.336.844-.676 1.684-1.015 2.516-.418.98-.77 1.988-1.047 3.016-.075.23-.11.457-.11.672 0 .218.102.414.313.578.144.093.289.117.437.062.153-.058.32-.133.5-.218a.956.956 0 0 1 .11-.094 16.435 16.435 0 0 0 3.312-2.516c.164-.152.344-.289.531-.406.184-.113.41-.133.672-.063ZM7.5-11.25c.145-.227.184-.445.125-.656-.055-.207-.195-.364-.422-.469-.469-.258-.976-.29-1.516-.094-1.304.387-2.398 1.137-3.28 2.25C1.52-9.113 1.038-7.895.968-6.563c.027.063.047.106.047.125v.344c.113.606.488.727 1.125.36.644-.371 1.363-.977 2.156-1.813.789-.84 1.5-1.64 2.125-2.39.633-.758.992-1.196 1.078-1.313Zm0 0"/></symbol><clipPath id="a"><path d="M19.348 19.348h336v336h-336Zm0 0"/></clipPath><clipPath id="b"><path d="M24.742 23.242h325.5v327h-325.5Zm0 0"/></clipPath></defs><path style="fill:#fff;fill-opacity:1;stroke:none" d="M0 0h375v375H0z"/><path style="fill:#fffddf;fill-opacity:1;stroke:none" d="M0 0h375v375H0z"/><path style="fill:#fff;fill-opacity:1;stroke:none" d="M0 0h375v375H0z"/><path style="fill:#fffddf;fill-opacity:1;stroke:none" d="M0 0h375v375H0z"/><g clip-path="url(#a)"><path style="stroke:none;fill-rule:nonzero;fill:#3765a8;fill-opacity:1" d="M187.348 19.348c-92.782 0-168 75.218-168 168 0 92.785 75.218 168 168 168 92.785 0 168-75.215 168-168 0-92.782-75.215-168-168-168"/></g><g clip-path="url(#b)"><path style="stroke:none;fill-rule:nonzero;fill:#fff;fill-opacity:1" d="M187.492 23.242c-89.883 0-162.75 73.203-162.75 163.5s72.867 163.5 162.75 163.5 162.75-73.203 162.75-163.5-72.867-163.5-162.75-163.5"/></g><use xlink:href="#c" x="97.84" y="131.211" style="fill:#3765a8;fill-opacity:1"/><use xlink:href="#d" x="152.973" y="131.211" style="fill:#3765a8;fill-opacity:1"/><use xlink:href="#e" x="173.195" y="131.211" style="fill:#3765a8;fill-opacity:1"/><use xlink:href="#f" x="186.95" y="131.211" style="fill:#3765a8;fill-opacity:1"/><use xlink:href="#g" x="196.641" y="131.211" style="fill:#3765a8;fill-opacity:1"/><use xlink:href="#h" x="244.811" y="131.211" style="fill:#3765a8;fill-opacity:1"/><use xlink:href="#e" x="263.412" y="131.211" style="fill:#3765a8;fill-opacity:1"/><use xlink:href="#i" x="87.891" y="282.409" style="fill:#d14d95;fill-opacity:1"/><use xlink:href="#j" x="122.859" y="282.409" style="fill:#d14d95;fill-opacity:1"/><use xlink:href="#k" x="129.784" y="282.409" style="fill:#d14d95;fill-opacity:1"/><use xlink:href="#l" x="157.065" y="282.409" style="fill:#d14d95;fill-opacity:1"/><use xlink:href="#m" x="172.46" y="282.409" style="fill:#d14d95;fill-opacity:1"/><use xlink:href="#i" x="182.152" y="282.409" style="fill:#d14d95;fill-opacity:1"/><use xlink:href="#k" x="217.12" y="282.409" style="fill:#d14d95;fill-opacity:1"/><use xlink:href="#n" x="244.401" y="282.409" style="fill:#d14d95;fill-opacity:1"/><use xlink:href="#o" x="270.956" y="282.409" style="fill:#d14d95;fill-opacity:1"/><use xlink:href="#p" x="166.207" y="194.559" style="fill:#000;fill-opacity:1"/><use xlink:href="#q" x="178.855" y="194.559" style="fill:#000;fill-opacity:1"/><use xlink:href="#r" x="192.839" y="194.559" style="fill:#000;fill-opacity:1"/><path style="fill:none;stroke-width:1;stroke-linecap:butt;stroke-linejoin:miter;stroke:#000;stroke-opacity:1;stroke-miterlimit:4" d="M0 0h20.205" transform="matrix(1.48492 0 0 1.5 125.954 184.5)"/><path style="fill:none;stroke-width:1;stroke-linecap:butt;stroke-linejoin:miter;stroke:#000;stroke-opacity:1;stroke-miterlimit:4" d="M0 0h20.205" transform="matrix(1.48492 0 0 1.5 215.954 185.25)"/></svg>